<?xml version="1.0" encoding="utf-8"?>
<!-- Generator: Adobe Illustrator 24.0.3, SVG Export Plug-In . SVG Version: 6.00 Build 0)  -->
<svg version="1.1" id="Layer_1" xmlns="http://www.w3.org/2000/svg" xmlns:xlink="http://www.w3.org/1999/xlink" x="0px" y="0px"
	 viewBox="0 0 489.6 489.6" style="enable-background:new 0 0 489.6 489.6;" xml:space="preserve">
<style type="text/css">
	.st0{display:none;}
	.st1{display:inline;}
	.st2{fill:url(#SVGID_1_);}
	.st3{fill:url(#SVGID_2_);}
	.st4{fill:#FFFFFF;}
</style>
<g id="Layer_2_1_" class="st0">
	<rect x="-124.8" y="-39.4" class="st1" width="792" height="612"/>
</g>
<g id="Layer_1_1_" class="st0">
	
		<image style="display:inline;overflow:visible;enable-background:new    ;" width="1000" height="1000" xlink:href="../../../../OneDrive - Seneca/Portfolio/Logo_antiga/AO.png"  transform="matrix(1 0 0 1 -228.8228 -173.6193)">
	</image>
</g>
<g id="Layer_4">
</g>
<g id="Layer_3">
	<g>
		
			<linearGradient id="SVGID_1_" gradientUnits="userSpaceOnUse" x1="329.7221" y1="316.4177" x2="329.7221" y2="88" gradientTransform="matrix(1 0 0 1 0 130)">
			<stop  offset="0" style="stop-color:#F090A9"/>
			<stop  offset="0.9986" style="stop-color:#82B1B8"/>
		</linearGradient>
		<path class="st2" d="M424,218c0,0-88.3,115.9-213,141c-31.9,6.4,6.5,52.1,66,76c47.8,19.2,103,8.3,114.7,8.6L460,352
			C456.2,301.9,453.5,263.9,424,218z"/>
		
			<linearGradient id="SVGID_2_" gradientUnits="userSpaceOnUse" x1="186.8" y1="189.8" x2="186.8" y2="13" gradientTransform="matrix(1 0 0 1 0 130)">
			<stop  offset="0" style="stop-color:#F090A9"/>
			<stop  offset="0.9986" style="stop-color:#82B1B8"/>
		</linearGradient>
		<path class="st3" d="M231,143c-32.2,55.4-102.5,87.1-155.7,107l-19.7,69.8L318,305.4L231,143z"/>
		<g>
			<path class="st4" d="M184.3,100l118.2,194.1l-227.2,5.3L184.3,100 M182.4,18L5.2,342.1l369.2-8.6L182.4,18L182.4,18z"/>
		</g>
		<g>
			<g>
				<path class="st4" d="M326.1,195.9c31.3,0,60.8,12.2,83,34.4s34.4,51.6,34.4,83s-12.2,60.8-34.4,83c-22.2,22.2-51.6,34.4-83,34.4
					c-31.3,0-60.8-12.2-83-34.4c-22.2-22.2-34.4-51.6-34.4-83c0-31.3,12.2-60.8,34.4-83S294.7,195.9,326.1,195.9 M326.1,154.9
					c-87.4,0-158.3,70.9-158.3,158.3s70.9,158.3,158.3,158.3s158.3-70.9,158.3-158.3C484.4,225.8,413.5,154.9,326.1,154.9
					L326.1,154.9z"/>
			</g>
		</g>
	</g>
</g>
</svg>
