<?xml version="1.0" encoding="utf-8"?>
<!-- Generator: Adobe Illustrator 24.0.3, SVG Export Plug-In . SVG Version: 6.00 Build 0)  -->
<svg version="1.1" id="Capa_1" xmlns="http://www.w3.org/2000/svg" xmlns:xlink="http://www.w3.org/1999/xlink" x="0px" y="0px"
	 viewBox="0 0 476.7 476.7" style="enable-background:new 0 0 476.7 476.7;" xml:space="preserve">
<style type="text/css">
	.st0{display:none;fill:#010002;}
	.st1{fill:#FFFFFF;}
</style>
<g>
	<g>
		<g>
			<g>
				<path class="st0" d="M238.4,0C106.7,0,0,106.7,0,238.4C0,370,106.7,476.7,238.4,476.7S476.8,370,476.8,238.3
					C476.7,106.7,370,0,238.4,0z M238.4,445c-113.9,0-206.6-92.7-206.6-206.6S124.5,31.8,238.4,31.8S445,124.5,445,238.4
					S352.3,445,238.4,445z"/>
				<path class="st1" d="M365.5,222.5H111.2c-8.8,0-15.9,7.1-15.9,15.9c0,8.7,7.1,15.9,15.9,15.9h254.3c8.7,0,15.9-7.2,15.9-15.9
					C381.4,229.6,374.2,222.5,365.5,222.5z"/>
				<path class="st1" d="M365.5,127.1H111.2c-8.8,0-15.9,7.1-15.9,15.9s7.1,15.9,15.9,15.9h254.3c8.7,0,15.9-7.1,15.9-15.9
					C381.4,134.2,374.2,127.1,365.5,127.1z"/>
				<path class="st1" d="M365.5,317.8H111.2c-8.8,0-15.9,7.2-15.9,15.9s7.1,15.9,15.9,15.9h254.3c8.7,0,15.9-7.2,15.9-15.9
					S374.2,317.8,365.5,317.8z"/>
			</g>
		</g>
	</g>
</g>
</svg>
