<?xml version="1.0" encoding="utf-8"?>
<!-- Generator: Adobe Illustrator 24.0.2, SVG Export Plug-In . SVG Version: 6.00 Build 0)  -->
<svg version="1.1" xmlns="http://www.w3.org/2000/svg" xmlns:xlink="http://www.w3.org/1999/xlink" x="0px" y="0px"
	 viewBox="0 0 360 360" style="enable-background:new 0 0 360 360;" xml:space="preserve">
<style type="text/css">
	.st0{display:none;}
	.st1{display:inline;}
	.st2{font-family:'HWTMardell';}
	.st3{font-size:48px;}
	.st4{font-family:'PoiretOne-Regular';}
	.st5{font-size:13px;}
</style>
<g id="Layer_2" class="st0">
</g>
<g id="symbol">
	<g>
		<g>
			<path d="M220.6,62.1c-20.3,0-38.6,8.1-52,21.2l6.7,11.6l37.1,63.8l-62.9,0.2c9.5,30.2,37.7,52.2,71.1,52.2
				c41.1,0,74.5-33.3,74.5-74.5S261.8,62.1,220.6,62.1z"/>
		</g>
		<g>
			<path d="M168.6,83.3l-30.4-52.2l-36.7,64.1l-36.7,64.1l73.8-0.3l10.9,0c-2.2-7-3.4-14.5-3.4-22.3
				C146.2,115.7,154.8,96.8,168.6,83.3z"/>
		</g>
	</g>
</g>
<g id="word_mark" class="st0">
	<text transform="matrix(1 0 0 1 102.8413 249.8936)" class="st1"><tspan x="0" y="0" class="st2 st3">A</tspan><tspan x="31.7" y="0" class="st4 st3">ghata</tspan><tspan x="-1.9" y="45" class="st2 st3">O</tspan><tspan x="34.9" y="45" class="st4 st3">liveira</tspan><tspan x="57.4" y="60.6" class="st4 st5">Designs</tspan></text>
</g>
</svg>
